<svg xmlns="http://www.w3.org/2000/svg" xmlns:xlink="http://www.w3.org/1999/xlink" width="102" height="91" viewBox="0 0 102 91">
  <defs>
    <clipPath id="clip-path">
      <rect id="Rectangle_180" data-name="Rectangle 180" width="102" height="91" transform="translate(735.316 306.696)" fill="#fff"/>
    </clipPath>
  </defs>
  <g id="Mask_Group_13" data-name="Mask Group 13" transform="translate(-735.316 -306.696)" clip-path="url(#clip-path)">
    <g id="Group_5444" data-name="Group 5444" transform="translate(736.2 306.93)">
      <g id="Group_5443" data-name="Group 5443" transform="translate(3.207 14.101)">
        <path id="Path_1081" data-name="Path 1081" d="M26006.1,1865.638c2.279-3.34,14.537-16.941,14.537-16.941a5.055,5.055,0,0,1,3.59-1.751c9.238-.485,40.555-1.342,44.717,2.563a23.046,23.046,0,0,1,6.057,8.513,1.52,1.52,0,0,1-.9,2.042l-3.506,1.211a1.087,1.087,0,0,0-.678,1.338l.842,2.335,4.869-.915c1.918-.4,2.832,1.444,3.291,3.649,1.15,5.5,2.9,15.6,1.18,19.379-2.412,5.3-4.309,6.176-4.309,6.176h-85.408c-2.387,0-3.943-10.951-3.072-17.342,2.41-8.083,16.4-10.6,16.4-10.6a4.554,4.554,0,0,1,2.008.369,1.085,1.085,0,0,0,.506.1c10.156-.647,42.166-3.028,52.91-4.042,1.93-.428,2.707-14.29,2.707-14.29" transform="translate(-25987.063 -1830.715)" fill="#d3e5fe"/>
        <path id="Path_1082" data-name="Path 1082" d="M26080.707,1896.454a8.263,8.263,0,0,1-7.262,4.333h-73.055l-3.832-8.062a12.009,12.009,0,0,1-9.215,10.508c.461,4.7,1.617,8.874,3.086,8.874h85.523s1.895-.878,4.313-6.184C26081.16,1903.96,26081.117,1900.3,26080.707,1896.454Z" transform="translate(-25987.176 -1849.582)" fill="#b2d2fe"/>
        <path id="Path_1083" data-name="Path 1083" d="M26006.1,1864.273c2.279-3.34,14.537-16.941,14.537-16.941a5.055,5.055,0,0,1,3.59-1.751c9.238-.485,40.555-1.342,44.717,2.563a23.049,23.049,0,0,1,6.057,8.513,1.52,1.52,0,0,1-.9,2.042l-3.506,1.211a1.086,1.086,0,0,0-.678,1.338l.842,2.335,4.869-.915c1.918-.4,2.832,1.444,3.291,3.649,1.15,5.5,2.9,15.6,1.18,19.379-2.412,5.3-4.309,6.176-4.309,6.176h-85.408c-2.387,0-3.943-10.951-3.072-17.342,2.41-8.083,16.4-10.6,16.4-10.6a4.556,4.556,0,0,1,2.008.369,1.085,1.085,0,0,0,.506.1c10.156-.647,42.166-3.028,52.91-4.042,1.93-.428,2.707-14.289,2.707-14.289" transform="translate(-25987.063 -1830.157)" fill="none" stroke="#257ffc" stroke-linecap="round" stroke-miterlimit="10" stroke-width="2.732"/>
        <path id="Path_1084" data-name="Path 1084" d="M25988.225,1902.188a12.939,12.939,0,0,0,8.732-9.554.429.429,0,0,0-.113-.409.418.418,0,0,0-.41-.1c-.717.226-2.164.842-3.467,1.389a4.3,4.3,0,0,0-2.584,3.293" transform="translate(-25987.535 -1849.329)" fill="none" stroke="#257ffc" stroke-linecap="round" stroke-miterlimit="10" stroke-width="2.732"/>
        <path id="Path_1085" data-name="Path 1085" d="M26019.234,1864.6c2.277-3.338,14.537-16.939,14.537-16.939a5.035,5.035,0,0,1,3.586-1.752c7.006-.372,26.684-.951,37.619.485,0,0-.682,13.927-2.725,14.2S26019.91,1865.034,26019.234,1864.6Z" transform="translate(-26000.197 -1830.291)" fill="#fff" stroke="#257ffc" stroke-linecap="round" stroke-miterlimit="10" stroke-width="2.732"/>
        <path id="Line_277" data-name="Line 277" d="M4.038,0,0,.938" transform="translate(87.944 36.96)" fill="none" stroke="#257ffc" stroke-linecap="round" stroke-miterlimit="10" stroke-width="2.732"/>
        <path id="Path_1086" data-name="Path 1086" d="M26028.566,1877.335a52.747,52.747,0,0,0-1.187,7.491,1.207,1.207,0,0,0,1.064,1.374,12.836,12.836,0,0,1,11.879,14.065.459.459,0,0,0,.465.512l20.006-.585a4.46,4.46,0,0,0,3.32-1.678,73.445,73.445,0,0,0,8.113-11.013,16,16,0,0,0,2.111-6.777" transform="translate(-26003.52 -1843.299)" fill="none" stroke="#257ffc" stroke-linecap="round" stroke-miterlimit="10" stroke-width="2.732"/>
        <g id="Group_5441" data-name="Group 5441" transform="translate(56.979)">
          <path id="Path_1087" data-name="Path 1087" d="M26097.908,1856.228s-14.553-1.94-14.553-21.34v-8.343a1.525,1.525,0,0,1,.955-1.407l13.035-5.214a1.506,1.506,0,0,1,1.133,0l13.035,5.214a1.515,1.515,0,0,1,.951,1.407v8.343c0,19.4-14.549,21.34-14.549,21.34" transform="translate(-26083.355 -1819.814)" fill="#fff"/>
          <path id="Path_1088" data-name="Path 1088" d="M26099.578,1855.284s-12.123-1.617-12.123-17.783v-6.952a1.266,1.266,0,0,1,.793-1.172l10.861-4.345a1.28,1.28,0,0,1,.941,0l10.863,4.346a1.268,1.268,0,0,1,.791,1.172v6.952c0,16.166-12.127,17.783-12.127,17.783" transform="translate(-26085.031 -1821.907)" fill="none" stroke="#257ffc" stroke-linecap="round" stroke-miterlimit="10" stroke-width="2.732"/>
        </g>
        <path id="Path_1091" data-name="Path 1091" d="M26099.578,1855.215s-12.123-1.616-12.123-17.783v-7.808l12.123-4.85" transform="translate(-26028.053 -1821.839)" fill="#d3e5fe" stroke="#257ffc" stroke-linecap="round" stroke-miterlimit="10" stroke-width="2.732"/>
        <path id="Line_278" data-name="Line 278" d="M.949,2.96,0,0" transform="translate(83.696 33.615)" fill="none" stroke="#257ffc" stroke-linecap="round" stroke-miterlimit="10" stroke-width="2.732"/>
        <circle id="Ellipse_184" data-name="Ellipse 184" cx="11.706" cy="11.706" r="11.706" transform="translate(66.395 46.579)" fill="#fff" stroke="#257ffc" stroke-linecap="round" stroke-miterlimit="10" stroke-width="2.732"/>
        <circle id="Ellipse_185" data-name="Ellipse 185" cx="11.706" cy="11.706" r="11.706" transform="translate(8.894 46.579)" fill="#fff" stroke="#257ffc" stroke-linecap="round" stroke-miterlimit="10" stroke-width="2.732"/>
        <path id="Path_1092" data-name="Path 1092" d="M26098.385,1848.611l4.85,4.85,8.082-11.316" transform="translate(-26032.514 -1828.931)" fill="none" stroke="#257ffc" stroke-linecap="round" stroke-linejoin="round" stroke-width="2.732"/>
      </g>
      <path id="Rectangle_753" data-name="Rectangle 753" d="M0,0H100.232V90.532H0Z" fill="none"/>
    </g>
  </g>
</svg>
