<svg xmlns="http://www.w3.org/2000/svg" width="1063.177" height="146" viewBox="0 0 1063.177 146">
  <g id="Group_34" data-name="Group 34" transform="translate(-453 -1293)">
    <ellipse id="Ellipse_26" data-name="Ellipse 26" cx="60.209" cy="42.5" rx="60.209" ry="42.5" transform="translate(453 1311)" fill="#4caceb"/>
    <path id="Path_40" data-name="Path 40" d="M60.209,0c33.252,0,60.209,23.057,60.209,51.5S93.461,103,60.209,103,0,79.943,0,51.5,26.956,0,60.209,0Z" transform="translate(529.162 1293)" fill="#f7d800"/>
    <path id="Path_39" data-name="Path 39" d="M60.209,0c33.252,0,60.209,23.057,60.209,51.5S93.461,103,60.209,103,0,79.943,0,51.5,26.956,0,60.209,0Z" transform="translate(614.586 1311)" fill="#5eb5ed"/>
    <path id="Path_41" data-name="Path 41" d="M60.209,0c33.252,0,60.209,23.057,60.209,51.5S93.461,103,60.209,103,0,79.943,0,51.5,26.956,0,60.209,0Z" transform="translate(694.865 1329)" fill="#f7d800"/>
    <ellipse id="Ellipse_30" data-name="Ellipse 30" cx="79.764" cy="51.5" rx="79.764" ry="51.5" transform="translate(743.238 1311)" fill="#64b7ed"/>
    <ellipse id="Ellipse_31" data-name="Ellipse 31" cx="79.764" cy="51.5" rx="79.764" ry="51.5" transform="translate(786.465 1324)" fill="#f7d800"/>
    <ellipse id="Ellipse_32" data-name="Ellipse 32" cx="68.443" cy="51.5" rx="68.443" ry="51.5" transform="translate(877.036 1311)" fill="#67b8ed"/>
    <ellipse id="Ellipse_33" data-name="Ellipse 33" cx="68.443" cy="51.5" rx="68.443" ry="51.5" transform="translate(972.753 1324)" fill="#f7d800"/>
    <ellipse id="Ellipse_34" data-name="Ellipse 34" cx="87.998" cy="56.5" rx="87.998" ry="56.5" transform="translate(1056.119 1314)" fill="#69b9ed"/>
    <ellipse id="Ellipse_35" data-name="Ellipse 35" cx="62.267" cy="56.5" rx="62.267" ry="56.5" transform="translate(1169.332 1314)" fill="#f7d800"/>
    <ellipse id="Ellipse_36" data-name="Ellipse 36" cx="62.267" cy="56.5" rx="62.267" ry="56.5" transform="translate(1221.822 1326)" fill="#6ab9ed"/>
    <ellipse id="Ellipse_37" data-name="Ellipse 37" cx="62.267" cy="56.5" rx="62.267" ry="56.5" transform="translate(1293.867 1301)" fill="#f7d800"/>
    <ellipse id="Ellipse_38" data-name="Ellipse 38" cx="70.501" cy="56.5" rx="70.501" ry="56.5" transform="translate(1375.175 1319)" fill="#6fbbed"/>
  </g>
</svg>
