<svg xmlns="http://www.w3.org/2000/svg" xmlns:xlink="http://www.w3.org/1999/xlink" width="112" height="101" viewBox="0 0 112 101">
  <defs>
    <clipPath id="clip-path">
      <rect id="Rectangle_177" data-name="Rectangle 177" width="112" height="101" transform="translate(1013.445 543.184)" fill="#fff"/>
    </clipPath>
  </defs>
  <g id="Mask_Group_9" data-name="Mask Group 9" transform="translate(-1013.445 -543.184)" clip-path="url(#clip-path)">
    <g id="Group_5429" data-name="Group 5429" transform="translate(1013.33 543)">
      <g id="Group_5428" data-name="Group 5428" transform="translate(23.253 14.879)">
        <path id="Path_787" data-name="Path 787" d="M24496.762,1897.719c17.523-.967,32.375-25.449,32.375-37.012V1833.57a5.836,5.836,0,0,0-.809-3c-2.5-4.225-11.18-12.128-31.562-12.128-20.434,0-29.105,7.954-31.582,12.153a5.872,5.872,0,0,0-.793,2.97l0,27.137c0,11.565,14.844,36.045,32.375,37.012" transform="translate(-24464.391 -1818.44)" fill="#d3e5fe"/>
        <path id="Path_1060" data-name="Path 1060" d="M24513.545,1891.193c-8.375-1.229-14.807-6.457-14.807-15.171v-56.415c-21.016,0-27.992,6.3-30.561,10.647a6.1,6.1,0,0,0-.83,3.11v27.816c0,11.914,13.33,35.174,31.393,36.17a26.91,26.91,0,0,0,14.8-6.159Z" transform="translate(-24465.391 -1818.834)" fill="#b2d2fe"/>
        <path id="Path_787-2" data-name="Path 787" d="M24498.24,1897.719c17.52-.967,32.371-25.449,32.371-37.012V1833.57a5.855,5.855,0,0,0-.809-3c-2.5-4.225-11.18-12.128-31.561-12.128-20.432,0-29.105,7.954-31.582,12.153a5.812,5.812,0,0,0-.789,2.97V1860.7c0,11.565,14.844,36.045,32.373,37.012" transform="translate(-24464.891 -1818.44)" fill="none" stroke="#257ffc" stroke-linecap="round" stroke-linejoin="round" stroke-width="2.732"/>
        <path id="Path_1061" data-name="Path 1061" d="M24521.945,1863.218h-9.809v-9.809h-9.812v9.809h-9.811v9.809h9.811v9.809h9.809v-9.809h9.811Z" transform="translate(-24473.883 -1830.241)" fill="#fff" stroke="#257ffc" stroke-linecap="round" stroke-linejoin="round" stroke-width="2.732"/>
        <g id="Group_5427" data-name="Group 5427" transform="translate(1.179 8.142)">
          <path id="Path_787-3" data-name="Path 787" d="M24501.283,1893.413c-14.021-.842-25.9-22.156-25.9-32.22v-17.786c0-4.25,6.568-12.671,12-12.671h2.635a19.15,19.15,0,0,1,6.711,1.213l4.725,1.768,4.5-1.72a19.132,19.132,0,0,1,6.834-1.267h2.57c5.428,0,12,8.421,12,12.671v17.792c0,10.066-11.885,31.38-25.906,32.22" transform="translate(-24469.279 -1830.73)" fill="none" stroke="#257ffc" stroke-linecap="round" stroke-linejoin="round" stroke-width="2.732"/>
          <path id="Path_787-4" data-name="Path 787" d="M24472.275,1861.269v-4.3l-6.1-4.552" transform="translate(-24466.172 -1838.047)" fill="none" stroke="#257ffc" stroke-linecap="round" stroke-linejoin="round" stroke-width="2.732"/>
          <path id="Path_787-5" data-name="Path 787" d="M24472.275,1871.112l-6.1-4.552" transform="translate(-24466.172 -1842.821)" fill="none" stroke="#257ffc" stroke-linecap="round" stroke-linejoin="round" stroke-width="2.732"/>
        </g>
        <path id="Path_787-6" data-name="Path 787" d="M24553.822,1861.269v-4.3l6.1-4.552" transform="translate(-24494.572 -1829.905)" fill="none" stroke="#257ffc" stroke-linecap="round" stroke-linejoin="round" stroke-width="2.732"/>
        <path id="Path_787-7" data-name="Path 787" d="M24553.822,1871.112l6.1-4.552" transform="translate(-24494.572 -1834.679)" fill="none" stroke="#257ffc" stroke-linecap="round" stroke-linejoin="round" stroke-width="2.732"/>
      </g>
      <path id="Rectangle_749" data-name="Rectangle 749" d="M0,0H112.228V101.367H0Z" transform="translate(0)" fill="none"/>
    </g>
  </g>
</svg>
