<svg xmlns="http://www.w3.org/2000/svg" xmlns:xlink="http://www.w3.org/1999/xlink" width="112" height="101" viewBox="0 0 112 101">
  <defs>
    <clipPath id="clip-path">
      <rect id="Rectangle_183" data-name="Rectangle 183" width="112" height="101" transform="translate(453.005 542.986)" fill="#fff"/>
    </clipPath>
  </defs>
  <g id="Mask_Group_16" data-name="Mask Group 16" transform="translate(-453.005 -542.986)" clip-path="url(#clip-path)">
    <g id="Group_5431" data-name="Group 5431" transform="translate(453.109 543)">
      <g id="Group_5430" data-name="Group 5430" transform="translate(8.876 12.142)">
        <path id="Path_810" data-name="Path 810" d="M24927.57,1900.205v25.009h-47.9v-25.009" transform="translate(-24858.934 -1843.565)" fill="#d3e5fe"/>
        <path id="Path_810-2" data-name="Path 810" d="M24927.57,1918.5v10.29h-47.9v-12.045a6.02,6.02,0,0,0,6.02-6.021h34.105a7.773,7.773,0,0,1,7.77,7.775Z" transform="translate(-24858.934 -1847.143)" fill="#b2d2fe"/>
        <path id="Path_810-3" data-name="Path 810" d="M24927.57,1914.333v15.687h-47.9v-15.687" transform="translate(-24858.934 -1848.369)" fill="none" stroke="#257ffc" stroke-linecap="round" stroke-linejoin="round" stroke-width="2.732"/>
        <path id="Rectangle_459" data-name="Rectangle 459" d="M0,0H17.322V21.487H0Z" transform="translate(26.609 53.44)" fill="#fff" stroke="#257ffc" stroke-linecap="round" stroke-linejoin="round" stroke-width="2.732"/>
        <path id="Rectangle_460" data-name="Rectangle 460" d="M0,0H10.981V16.756H0Z" transform="translate(50.66 64.893)" fill="#d3e5fe" stroke="#257ffc" stroke-linecap="round" stroke-linejoin="round" stroke-width="2.732"/>
        <path id="Path_810-4" data-name="Path 810" d="M24874.686,1894.945v-5.894l3.273-16.426h47.938l3.271,16.426v5.7" transform="translate(-24857.238 -1834.186)" fill="#d3e5fe" stroke="#257ffc" stroke-linecap="round" stroke-linejoin="round" stroke-width="2.732"/>
        <g id="Line_175" data-name="Line 175" transform="translate(17.428 58.604)">
          <path id="Path_1062" data-name="Path 1062" d="M24929.146,1904.984c-2.268,0-2.268-1.8-4.533-1.8s-2.27,1.8-4.541,1.8-2.27-1.8-4.535-1.8-2.27,1.8-4.539,1.8-2.271-1.8-4.541-1.8-2.264,1.8-4.531,1.8-2.268-1.8-4.537-1.8-2.271,1.8-4.541,1.8-2.27-1.8-4.541-1.8-2.273,1.8-4.547,1.8-2.275-1.8-4.553-1.8-2.275,1.8-4.551,1.8" transform="translate(-24874.656 -1903.181)" fill="none" stroke="#257ffc" stroke-linecap="round" stroke-linejoin="round" stroke-width="2.732"/>
        </g>
        <path id="Path_1063" data-name="Path 1063" d="M24910.646,1841.427c3.605-12.622-7.213-14.425-5.41-27.046-12.621,1.8-9.016,19.834-19.162,22.039-2.334-.229-2.068-2.476-1.5-7.514.486-4.782-3.475-7.255-8.184-9.116,0,5.409-1.992,5.712-7.1,14.1-3.387,5.572-1.869,14.37-7.326,14.746-5.047-.375-4.008-2.525-3.605-7.212-3.229,3.967-7.213,10.93-4.121,15.992a13.448,13.448,0,0,1,1.908,11.974c-3.2-.919-6-1.291-6.6-5.77-2.42,2.8-1.271,9.234,1.969,13.352s6.852,4.12,8.967,6.289" transform="translate(-24848.248 -1814.381)" fill="none" stroke="#257ffc" stroke-linecap="round" stroke-linejoin="round" stroke-width="2.732"/>
        <path id="Path_1064" data-name="Path 1064" d="M24959.023,1884.976c7.318-2.566,6.658-6.684,7.682-8.992,1.367-3.078,1.334-10.842,7.717-11.625-1.344-1.747-8.186-2.824-9.988-1.021s-5.41,1.8-7.213,1.8,1.607-5.914,3.607-9.016c2.627-4.176,4.27-11.9,0-14.425-5.41,9.015-12.545,3.738-18.031,9.015" transform="translate(-24880.398 -1823.671)" fill="none" stroke="#257ffc" stroke-linecap="round" stroke-linejoin="round" stroke-width="2.732"/>
      </g>
      <path id="Rectangle_750" data-name="Rectangle 750" d="M0,0H111.791V100.973H0Z" transform="translate(0)" fill="none"/>
    </g>
  </g>
</svg>
