<svg xmlns="http://www.w3.org/2000/svg" width="25.986" height="25.985" viewBox="0 0 25.986 25.985">
  <g id="menu_1_" data-name="menu (1)" transform="translate(0 -0.011)">
    <path id="Path_864" data-name="Path 864" d="M21.751,9.141a12.469,12.469,0,0,0-7.07,2.186,1.859,1.859,0,0,1-.818,1.565,8.745,8.745,0,0,0-.918.65,9.7,9.7,0,0,1-.889.847.4.4,0,0,1-.5.009,12.527,12.527,0,1,0,10.2-5.256Z" transform="translate(-8.759 -8.666)" fill="#a4c2f7"/>
    <path id="Path_865" data-name="Path 865" d="M18.342,9.141c-.179,0-.357.006-.534.013A2.373,2.373,0,0,1,15.6,10.235c-.2.01-.47,0-.765-.015a.456.456,0,0,1-.237.341c-.64.372-1.256.776-1.867,1.19a.487.487,0,0,1-.221.492c-1.3.863-2.38,2.005-3.624,2.941a18.388,18.388,0,0,0-1.005,2.74q-.223.585-.46,1.163c.038.891-.261,1.721-.289,2.621a.484.484,0,0,1-.026.11,12.7,12.7,0,0,0,1.924,5.534c.666.935,1,1.929,1.59,2.888.72,1.168,2.054,1.724,3.146,2.481a.5.5,0,0,1,.225.345c.505.258,1.021.5,1.516.777a.543.543,0,0,1,.047.033A12.525,12.525,0,1,0,18.342,9.141Z" transform="translate(-6.741 -8.666)" fill="#e3e7f2"/>
    <path id="Path_866" data-name="Path 866" d="M21.906,42.9c.234,0,.466-.008.7-.02-6.6-.361-12.065-5.379-12.065-12.065A12.528,12.528,0,0,1,22.37,18.3c-.231-.013-.462-.02-.7-.02A12.529,12.529,0,0,0,9.145,30.813C9.145,37.732,14.986,42.9,21.906,42.9Z" transform="translate(-8.681 -17.345)" fill="#fff"/>
    <g id="Group_327" data-name="Group 327" transform="translate(0 0.011)">
      <path id="Path_867" data-name="Path 867" d="M12.993,121.433A12.994,12.994,0,0,1,2.526,100.74a.464.464,0,1,1,.747.551A12.065,12.065,0,0,0,21.1,117.377a.464.464,0,1,1,.624.687,12.962,12.962,0,0,1-8.729,3.369Z" transform="translate(0 -95.448)" fill="#428dff"/>
      <path id="Path_868" data-name="Path 868" d="M122.159,19.964a.464.464,0,0,1-.4-.7A12.066,12.066,0,0,0,104.449,3.173a.464.464,0,1,1-.538-.756,12.995,12.995,0,0,1,18.645,17.324.463.463,0,0,1-.4.223Z" transform="translate(-98.452 -0.011)" fill="#428dff"/>
      <path id="Path_869" data-name="Path 869" d="M140.53,138.068H128.465a.464.464,0,1,1,0-.928H140.53a.464.464,0,0,1,0,.928Z" transform="translate(-121.505 -130.18)" fill="#428dff"/>
      <path id="Path_870" data-name="Path 870" d="M107.671,284.354H91.894a.464.464,0,1,1,0-.928h15.777a.464.464,0,1,1,0,.928Z" transform="translate(-86.79 -269.042)" fill="#428dff"/>
      <path id="Path_871" data-name="Path 871" d="M107.671,211.211H91.894a.464.464,0,1,1,0-.928h15.777a.464.464,0,1,1,0,.928Z" transform="translate(-86.79 -199.611)" fill="#428dff"/>
      <path id="Path_872" data-name="Path 872" d="M140.53,357.5H128.465a.464.464,0,1,1,0-.928H140.53a.464.464,0,0,1,0,.928Z" transform="translate(-121.505 -338.473)" fill="#428dff"/>
      <circle id="Ellipse_212" data-name="Ellipse 212" cx="0.464" cy="0.464" r="0.464" transform="translate(3.712 3.711)" fill="#428dff"/>
      <circle id="Ellipse_213" data-name="Ellipse 213" cx="0.464" cy="0.464" r="0.464" transform="translate(22.273 20.416)" fill="#428dff"/>
    </g>
  </g>
</svg>
