<svg xmlns="http://www.w3.org/2000/svg" width="50.764" height="50.764" viewBox="0 0 50.764 50.764">
  <path id="Path_48" data-name="Path 48" d="M25.382,0A25.382,25.382,0,1,0,50.764,25.382,25.385,25.385,0,0,0,25.382,0ZM39.869,31.391a10.693,10.693,0,0,1-.677,3.538,7.452,7.452,0,0,1-4.263,4.263,10.7,10.7,0,0,1-3.538.677c-1.554.071-2.051.088-6.009.088s-4.455-.017-6.009-.088a10.7,10.7,0,0,1-3.538-.677,7.452,7.452,0,0,1-4.263-4.263,10.691,10.691,0,0,1-.677-3.538c-.072-1.555-.088-2.051-.088-6.009s.017-4.455.088-6.009a10.694,10.694,0,0,1,.677-3.538,7.457,7.457,0,0,1,4.263-4.263,10.7,10.7,0,0,1,3.538-.677c1.554-.071,2.051-.088,6.009-.088s4.455.017,6.009.088a10.705,10.705,0,0,1,3.538.677,7.454,7.454,0,0,1,4.263,4.263,10.692,10.692,0,0,1,.678,3.538c.071,1.554.088,2.051.088,6.009S39.94,29.837,39.869,31.391Zm0,0" fill="#fff"/>
</svg>
