<svg xmlns="http://www.w3.org/2000/svg" width="54.016" height="134.289" viewBox="0 0 54.016 134.289">
  <g id="Group_43" data-name="Group 43" transform="translate(54.016) rotate(90)">
    <g id="Subtraction_1" data-name="Subtraction 1" transform="translate(5.327 6.449)" fill="none">
      <path d="M61.541,47.567A60.207,60.207,0,0,1,24.059,34.248,71.46,71.46,0,0,1,9.887,19.206,79.593,79.593,0,0,1,0,0H123.081a79.6,79.6,0,0,1-9.887,19.206A71.473,71.473,0,0,1,99.022,34.248,60.206,60.206,0,0,1,61.541,47.567Z" stroke="none"/>
      <path d="M 61.54079055786133 45.56687927246094 C 74.54460906982422 45.56687927246094 87.07752227783203 41.10971450805664 97.78453826904297 32.67729949951172 C 102.9641571044922 28.5977897644043 107.5985946655273 23.67778968811035 111.5590438842773 18.05400657653809 C 115.0262451171875 13.13035202026367 117.9244918823242 7.741114616394043 120.195182800293 2.00000786781311 L 2.886103391647339 2.000042676925659 C 5.156726837158203 7.741306781768799 8.054926872253418 13.13062000274658 11.52204608917236 18.05400657653809 C 15.48231887817383 23.67782592773438 20.11675643920898 28.5977897644043 25.29662895202637 32.67726135253906 C 36.00368118286133 41.10971450805664 48.53672027587891 45.56687927246094 61.54079055786133 45.56687927246094 M 61.54079055786133 47.56687927246094 C 48.08322906494141 47.56687927246094 35.12240982055664 42.96144485473633 24.0591926574707 34.24847793579102 C 18.7267017364502 30.04882621765137 13.95853710174561 24.98762512207031 9.886810302734375 19.20553398132324 C 5.782792091369629 13.37773418426514 2.456300973892212 6.916061401367188 1.012739721772959e-05 4.345092747826129e-05 L 123.0813369750977 7.087291578500299e-06 C 120.6245346069336 6.916952610015869 117.2977905273438 13.37827968597412 113.1942825317383 19.20553398132324 C 109.122428894043 24.98748016357422 104.3543701171875 30.04867935180664 99.02202606201172 34.24847793579102 C 87.95879364013672 42.96144485473633 74.99797058105469 47.56687927246094 61.54079055786133 47.56687927246094 Z" stroke="none" fill="#a6a2a2"/>
    </g>
    <rect id="Rectangle_107" data-name="Rectangle 107" width="134.289" height="12.766" transform="translate(0 0)" fill="#fff"/>
  </g>
</svg>
