<svg xmlns="http://www.w3.org/2000/svg" xmlns:xlink="http://www.w3.org/1999/xlink" width="100" height="91" viewBox="0 0 100 91">
  <defs>
    <clipPath id="clip-path">
      <rect id="Rectangle_179" data-name="Rectangle 179" width="100" height="91" transform="translate(453 302.39)" fill="#fff"/>
    </clipPath>
  </defs>
  <g id="Mask_Group_12" data-name="Mask Group 12" transform="translate(-453 -302.39)" clip-path="url(#clip-path)">
    <g id="Group_5426" data-name="Group 5426" transform="translate(453.179 302.89)">
      <g id="Group_5425" data-name="Group 5425" transform="translate(9.427 5.811)">
        <path id="Path_822" data-name="Path 822" d="M24136.844,1897.922h24.07v-22.408a5.719,5.719,0,0,0-5.719-5.717h-12.609a5.719,5.719,0,0,0-5.717,5.71Z" transform="translate(-24087.162 -1832.187)" fill="#d3e5fe" stroke="#257ffc" stroke-linecap="round" stroke-linejoin="round" stroke-width="2.732"/>
        <path id="Rectangle_747" data-name="Rectangle 747" d="M0,0H20.893V13.661H0Z" transform="translate(51.245 52.074)" fill="#b2d2fe"/>
        <path id="Path_1042" data-name="Path 1042" d="M24061.627,1925.484v-9.7a3.156,3.156,0,0,1,3.156-3.155h3.273l1.609-3.214,3.213,3.214v12.857Z" transform="translate(-24056.191 -1848.5)" fill="#d3e5fe" stroke="#d3e5fe" stroke-linecap="round" stroke-linejoin="round" stroke-width="2.732"/>
        <path id="Path_1043" data-name="Path 1043" d="M24068.281,1917.448h4.594v-4.822l-3.215-3.214-1.605,3.214h-3.273a3.155,3.155,0,0,0-3.156,3.155v10.506h3.215v-5.4A3.44,3.44,0,0,1,24068.281,1917.448Z" transform="translate(-24056.189 -1848.5)" fill="#b2d2fe"/>
        <path id="Path_1044" data-name="Path 1044" d="M24108.4,1925.484v-9.7a3.159,3.159,0,0,0-3.16-3.155h-3.27l-1.609-3.214-3.211,3.214v12.857Z" transform="translate(-24070.818 -1848.5)" fill="#d3e5fe" stroke="#d3e5fe" stroke-linecap="round" stroke-linejoin="round" stroke-width="2.732"/>
        <path id="Path_1045" data-name="Path 1045" d="M24108.4,1915.782a3.159,3.159,0,0,0-3.16-3.155h-3.27l-1.609-3.214-3.211,3.214v4.822h11.25Z" transform="translate(-24070.818 -1848.5)" fill="#b2d2fe"/>
        <g id="Group_5424" data-name="Group 5424" transform="translate(10.146 36.541)">
          <path id="Path_1046" data-name="Path 1046" d="M24090.635,1883.011h-.986v-2.445h-15.4v2.446a1.854,1.854,0,0,0-1.852,1.85v1.234a1.851,1.851,0,0,0,1.852,1.85v-.293a7.7,7.7,0,0,0,15.387.292h1.008a1.851,1.851,0,0,0,1.846-1.852l0-1.233a1.848,1.848,0,0,0-1.85-1.851Z" transform="translate(-24070.77 -1873.163)" fill="#fff" stroke="#257ffc" stroke-linecap="round" stroke-linejoin="round" stroke-width="2.732"/>
          <path id="Path_827" data-name="Path 827" d="M24069.664,1867.98c.492,1.644,2.539,1.355,3.926,1.355h10.145c5.4,0,4.77,6.049,4.77,6.049h-15.445C24069.07,1875.384,24069.664,1867.98,24069.664,1867.98Z" transform="translate(-24069.633 -1867.98)" fill="#d3e5fe" stroke="#257ffc" stroke-linecap="round" stroke-linejoin="round" stroke-width="2.732"/>
        </g>
        <path id="Path_1047" data-name="Path 1047" d="M24159.346,1885.688h-.986v-6.329h-15.4v6.331a1.851,1.851,0,0,0-1.85,1.85l0,1.238a1.85,1.85,0,0,0,1.85,1.847v-.3a7.7,7.7,0,1,0,15.4,0l0,.3h.988a1.851,1.851,0,0,0,1.848-1.851v-1.234a1.851,1.851,0,0,0-1.854-1.85Z" transform="translate(-24088.918 -1836.125)" fill="#fff" stroke="#257ffc" stroke-linecap="round" stroke-linejoin="round" stroke-width="2.732"/>
        <path id="Path_832" data-name="Path 832" d="M24167.834,1877.691v4.045a3.739,3.739,0,0,1-3.74-3.738l0-2.308h2.662c.594,0,1.076.9,1.076,2Z" transform="translate(-24098.383 -1834.614)" fill="#d3e5fe" stroke="#257ffc" stroke-linecap="round" stroke-linejoin="round" stroke-width="2.732"/>
        <path id="Path_832-2" data-name="Path 832" d="M24155.914,1875.69a6.045,6.045,0,0,1-6.047,6.046h-5.627v-4.045c0-1.105,1.238-2,2.764-2Z" transform="translate(-24090.207 -1834.614)" fill="#d3e5fe" stroke="#257ffc" stroke-linecap="round" stroke-linejoin="round" stroke-width="2.732"/>
        <path id="Path_833" data-name="Path 833" d="M24092.779,1816.612c-15.82-.362-30.8,3.872-40.068,16.7a1.769,1.769,0,0,0,1.719,2.769,27.93,27.93,0,0,1,8.811-.206c5.355,1.04,9.742,3.456,11.895,6.205a1.735,1.735,0,0,0,2.215.453,38.344,38.344,0,0,1,30.848,0,1.737,1.737,0,0,0,2.213-.453c2.152-2.75,6.551-5.166,11.9-6.205a27.943,27.943,0,0,1,8.811.206,1.769,1.769,0,0,0,1.717-2.769c-9.246-12.828-24.23-17.062-40.051-16.7Z" transform="translate(-24052.385 -1810.279)" fill="#d3e5fe"/>
        <path id="Path_1048" data-name="Path 1048" d="M24091.3,1816.646c-15.266.121-29.611,4.262-38.584,16.689a1.766,1.766,0,0,0,1.715,2.769,27.951,27.951,0,0,1,8.814-.206c5.354,1.04,9.742,3.456,11.895,6.205a1.734,1.734,0,0,0,1.582.653c1.586-13.863,10.914-22.094,14.584-26.11Z" transform="translate(-24052.385 -1810.302)" fill="#b2d2fe"/>
        <path id="Path_833-2" data-name="Path 833" d="M24092.779,1816.612c-15.82-.362-30.8,3.872-40.068,16.7a1.769,1.769,0,0,0,1.719,2.769,27.93,27.93,0,0,1,8.811-.206c5.355,1.04,9.742,3.456,11.895,6.205a1.735,1.735,0,0,0,2.215.453,38.344,38.344,0,0,1,30.848,0,1.737,1.737,0,0,0,2.213-.453c2.152-2.75,6.551-5.166,11.9-6.205a27.943,27.943,0,0,1,8.811.206,1.769,1.769,0,0,0,1.717-2.769c-9.246-12.828-24.23-17.062-40.051-16.7Z" transform="translate(-24052.385 -1810.279)" fill="none" stroke="#257ffc" stroke-linecap="round" stroke-miterlimit="10" stroke-width="2.732"/>
        <path id="Path_834" data-name="Path 834" d="M24118.648,1808.7v-1.419a1.418,1.418,0,0,1,2.836,0v1.419" transform="translate(-24079.67 -1805.861)" fill="none" stroke="#257ffc" stroke-linecap="round" stroke-miterlimit="10" stroke-width="2.732"/>
        <path id="Path_1049" data-name="Path 1049" d="M24061.627,1925.484v-9.7a3.156,3.156,0,0,1,3.156-3.155h3.273l1.609-3.214,3.213,3.214v12.857" transform="translate(-24056.191 -1848.5)" fill="none" stroke="#257ffc" stroke-linecap="round" stroke-linejoin="round" stroke-width="2.732"/>
        <path id="Line_269" data-name="Line 269" d="M0,9.643V0" transform="translate(21.513 67.341)" fill="none" stroke="#257ffc" stroke-linecap="round" stroke-linejoin="round" stroke-width="2.732"/>
        <path id="Line_270" data-name="Line 270" d="M0,1.607V0" transform="translate(21.513 62.52)" fill="none" stroke="#257ffc" stroke-linecap="round" stroke-linejoin="round" stroke-width="2.732"/>
        <path id="Line_271" data-name="Line 271" d="M3.214,3.214,0,0" transform="translate(13.478 65.734)" fill="none" stroke="#257ffc" stroke-linecap="round" stroke-linejoin="round" stroke-width="2.732"/>
        <path id="Path_1050" data-name="Path 1050" d="M24108.4,1925.484v-9.7a3.159,3.159,0,0,0-3.16-3.155h-3.27l-1.609-3.214-3.211,3.214v12.857" transform="translate(-24070.818 -1848.5)" fill="none" stroke="#257ffc" stroke-linecap="round" stroke-linejoin="round" stroke-width="2.732"/>
        <path id="Line_272" data-name="Line 272" d="M0,3.214,3.214,0" transform="translate(26.334 65.734)" fill="none" stroke="#257ffc" stroke-linecap="round" stroke-linejoin="round" stroke-width="2.732"/>
        <path id="Path_1051" data-name="Path 1051" d="M24158.457,1914.877a4.018,4.018,0,1,1-8.035,0" transform="translate(-24092.752 -1850.75)" fill="#b2d2fe" stroke="#257ffc" stroke-linecap="round" stroke-linejoin="round" stroke-width="2.732"/>
        <path id="Line_273" data-name="Line 273" d="M0,0V1.607" transform="translate(61.691 72.163)" fill="none" stroke="#257ffc" stroke-linecap="round" stroke-linejoin="round" stroke-width="2.732"/>
        <path id="Path_1052" data-name="Path 1052" d="M24132.664,1927.734v-9.7a3.155,3.155,0,0,1,3.154-3.155h7.293v12.857Z" transform="translate(-24085.441 -1850.75)" fill="#d3e5fe" stroke="#d3e5fe" stroke-linecap="round" stroke-linejoin="round" stroke-width="2.732"/>
        <path id="Path_1053" data-name="Path 1053" d="M24139.307,1919.7h3.813v-4.822h-8.576a1.871,1.871,0,0,0-1.871,1.871v11.79h4.822v-7.023A1.813,1.813,0,0,1,24139.307,1919.7Z" transform="translate(-24085.445 -1850.75)" fill="#b2d2fe"/>
        <path id="Path_1054" data-name="Path 1054" d="M24174.545,1927.725l-.012-9.7a3.162,3.162,0,0,0-3.162-3.152l-7.291.011.018,12.857Z" transform="translate(-24098.377 -1850.748)" fill="#d3e5fe" stroke="#d3e5fe" stroke-linecap="round" stroke-linejoin="round" stroke-width="2.732"/>
        <path id="Path_1055" data-name="Path 1055" d="M24174.529,1919.69v-1.667a3.162,3.162,0,0,0-3.162-3.152l-7.289.011v4.821Z" transform="translate(-24098.377 -1850.748)" fill="#b2d2fe"/>
        <path id="Path_1056" data-name="Path 1056" d="M24132.664,1927.734v-9.7a3.155,3.155,0,0,1,3.154-3.155h7.293v12.857" transform="translate(-24085.441 -1850.75)" fill="none" stroke="#257ffc" stroke-linecap="round" stroke-linejoin="round" stroke-width="2.732"/>
        <path id="Path_1057" data-name="Path 1057" d="M24174.531,1927.734v-9.7a3.154,3.154,0,0,0-3.156-3.155h-7.291v12.857" transform="translate(-24098.379 -1850.75)" fill="none" stroke="#257ffc" stroke-linecap="round" stroke-linejoin="round" stroke-width="2.732"/>
        <path id="Path_1058" data-name="Path 1058" d="M24143.127,1918.158v2.6a5.456,5.456,0,0,0,3.193,4.963l1.111.506" transform="translate(-24089.748 -1852.101)" fill="none" stroke="#257ffc" stroke-linecap="round" stroke-linejoin="round" stroke-width="2.732"/>
        <path id="Path_1059" data-name="Path 1059" d="M24168.395,1918.158v2.6a5.456,5.456,0,0,1-3.2,4.963l-1.109.506" transform="translate(-24098.383 -1852.101)" fill="none" stroke="#257ffc" stroke-linecap="round" stroke-linejoin="round" stroke-width="2.732"/>
      </g>
      <path id="Rectangle_748" data-name="Rectangle 748" d="M0,0H99.643V90H0Z" fill="none"/>
    </g>
  </g>
</svg>
