<svg xmlns="http://www.w3.org/2000/svg" width="54.016" height="134.289" viewBox="0 0 54.016 134.289">
  <g id="Group_42" data-name="Group 42" transform="translate(54.016) rotate(90)">
    <g id="Subtraction_1" data-name="Subtraction 1" transform="translate(5.327 0)" fill="none">
      <path d="M61.541,0A60.207,60.207,0,0,0,24.059,13.318,71.46,71.46,0,0,0,9.887,28.361,79.593,79.593,0,0,0,0,47.567H123.081a79.6,79.6,0,0,0-9.887-19.206A71.473,71.473,0,0,0,99.022,13.318,60.206,60.206,0,0,0,61.541,0Z" stroke="none"/>
      <path d="M 61.54079055786133 2.000007629394531 C 48.53669738769531 2.000007629394531 36.00368499755859 6.457172393798828 25.296630859375 14.8896598815918 C 20.11677551269531 18.96907997131348 15.48232269287109 23.8890438079834 11.52201080322266 29.51289749145508 C 8.054939270019531 34.43623733520508 5.156723022460938 39.8255500793457 2.886070251464844 45.56684494018555 L 120.1951675415039 45.56687927246094 C 117.9244613647461 39.82573699951172 115.0262145996094 34.43649291992188 111.5590667724609 29.51291656494141 C 107.5985412597656 23.88906097412109 102.9641189575195 18.96906089782715 97.78457641601563 14.88964462280273 C 87.0775146484375 6.457172393798828 74.54463195800781 2.000007629394531 61.54079055786133 2.000007629394531 M 61.54079055786133 7.62939453125e-06 C 74.99797058105469 7.62939453125e-06 87.95879364013672 4.605442047119141 99.02201080322266 13.31842422485352 C 104.3543701171875 17.51820755004883 109.1224060058594 22.57940673828125 113.1942672729492 28.36135292053223 C 117.2977905273438 34.18860626220703 120.6245193481445 40.64993286132813 123.0813217163086 47.56687927246094 L -7.62939453125e-06 47.56684494018555 C 2.456298828125 40.65082550048828 5.78277587890625 34.18915176391602 9.886795043945313 28.36135292053223 C 13.95853424072266 22.57926177978516 18.72669982910156 17.5180606842041 24.05918884277344 13.31842422485352 C 35.12241363525391 4.605442047119141 48.08322906494141 7.62939453125e-06 61.54079055786133 7.62939453125e-06 Z" stroke="none" fill="#a6a2a2"/>
    </g>
    <rect id="Rectangle_107" data-name="Rectangle 107" width="134.289" height="12.766" transform="translate(0 41.249)" fill="#fff"/>
  </g>
</svg>
