<svg id="Layer_2" data-name="Layer 2" xmlns="http://www.w3.org/2000/svg" width="144.097" height="144.097" viewBox="0 0 144.097 144.097">
  <g id="Layer_1" data-name="Layer 1" transform="translate(0)">
    <g id="Layer_2-2" data-name="Layer 2">
      <g id="Layer_1-2" data-name="Layer 1-2">
        <path id="Path_649" data-name="Path 649" d="M72.048,0A72.048,72.048,0,1,1,0,72.048,72.048,72.048,0,0,1,72.048,0Z" fill="#fff"/>
        <path id="Path_650" data-name="Path 650" d="M23.424,34.5h3.3A2.974,2.974,0,0,1,29.7,37.474h0a2.974,2.974,0,0,1-2.974,2.974h-3.3a2.974,2.974,0,0,1-2.974-2.974h0A2.974,2.974,0,0,1,23.424,34.5Z" transform="translate(47.137 79.521)" fill="#fafafc"/>
        <path id="Path_651" data-name="Path 651" d="M51.734,4.8A42.965,42.965,0,0,1,94.368,47.434V59.5H90.4V47.6a38.338,38.338,0,0,0-76.675,0V59.5H9.1V47.6A42.275,42.275,0,0,1,21.665,17.518,41.676,41.676,0,0,1,51.734,4.965Z" transform="translate(20.975 11.064)" fill="#58595b" stroke="#58595b" stroke-miterlimit="2.61" stroke-width="0.3"/>
        <path id="Path_652" data-name="Path 652" d="M90.946,19.6h0a4.363,4.363,0,0,1,4.3,4.3V58.433a4.363,4.363,0,0,1-4.3,4.3h0a4.363,4.363,0,0,1-4.3-4.3V23.9a4.363,4.363,0,0,1,4.3-4.3Zm4.3,4.3h0A11.7,11.7,0,0,1,106.81,35.464v11.9A11.7,11.7,0,0,1,95.243,58.929ZM22.864,19.6h0a4.363,4.363,0,0,0-4.3,4.3V58.433a4.363,4.363,0,0,0,4.3,4.3h0a4.363,4.363,0,0,0,4.3-4.3V23.9a4.164,4.164,0,0,0-4.032-4.3Zm-4.3,3.966h0A11.7,11.7,0,0,0,7,35.3V47.362A11.7,11.7,0,0,0,18.567,58.929Z" transform="translate(16.135 45.177)" fill="#fff" stroke="#58595b" stroke-miterlimit="2.61" stroke-width="1.2"/>
        <path id="Path_653" data-name="Path 653" d="M33.99,20.14h0c1.223,0,2.28,1.686,2.28,3.7V55.834c0,2.016-1.058,3.7-2.28,3.7h0c-1.223,0-2.28-1.686-2.28-3.7V23.842C31.71,21.826,32.668,20.14,33.99,20.14Z" transform="translate(73.091 46.422)" fill="#00b4ff"/>
        <path id="Path_654" data-name="Path 654" d="M34.1,21.7h0a8.791,8.791,0,0,1,8.593,8.593v13.55A8.791,8.791,0,0,1,34.1,52.436h0Z" transform="translate(78.599 50.018)" fill="#00b4ff"/>
        <path id="Path_655" data-name="Path 655" d="M23.866,34.1h5.288a4.032,4.032,0,0,1,3.966,3.966h0a4.032,4.032,0,0,1-3.966,3.966H23.866A4.032,4.032,0,0,1,19.9,38.066h0A4.032,4.032,0,0,1,23.866,34.1Z" transform="translate(45.869 78.599)" fill="none" stroke="#58595b" stroke-miterlimit="2.61" stroke-width="1.3"/>
        <path id="Path_656" data-name="Path 656" d="M51.947,32.7a21.879,21.879,0,0,1-3.3,4.3,22.738,22.738,0,0,1-16.194,6.94h-8.1V39.971h8.262a19.4,19.4,0,0,0,13.716-5.618A5.817,5.817,0,0,0,47.65,32.7Z" transform="translate(56.126 75.373)" fill="#58595b" stroke="#58595b" stroke-miterlimit="2.61" stroke-width="0.22"/>
      </g>
    </g>
  </g>
</svg>
