<svg xmlns="http://www.w3.org/2000/svg" xmlns:xlink="http://www.w3.org/1999/xlink" width="90" height="81" viewBox="0 0 90 81">
  <defs>
    <clipPath id="clip-path">
      <rect id="Image_1" data-name="Image 1" width="90" height="81" transform="translate(1304.02 307.011)" fill="#fff"/>
    </clipPath>
  </defs>
  <g id="Mask_Group_11" data-name="Mask Group 11" transform="translate(-1304.02 -307.011)" clip-path="url(#clip-path)">
    <g id="Group_5446" data-name="Group 5446" transform="translate(1304.151 306.985)">
      <g id="Group_5445" data-name="Group 5445" transform="translate(6.461 24.621)">
        <path id="Path_1093" data-name="Path 1093" d="M26373.9,1908.047v14.462a1.458,1.458,0,0,0,1.459,1.459h11.553a1.46,1.46,0,0,0,1.461-1.459v-4.331" transform="translate(-26373.895 -1873.301)" fill="#d3e5fe" stroke="#257ffc" stroke-linecap="round" stroke-miterlimit="10" stroke-width="2.732"/>
        <path id="Path_1094" data-name="Path 1094" d="M26464.924,1854.383a3.4,3.4,0,1,1,4.816,0" transform="translate(-26416.23 -1845.335)" fill="none" stroke="#257ffc" stroke-linecap="round" stroke-miterlimit="10" stroke-width="2.732"/>
        <path id="Rectangle_754" data-name="Rectangle 754" d="M2.964,0h9.987a2.964,2.964,0,0,1,2.97,2.964V4.342H0V2.964A2.964,2.964,0,0,1,2.964,0Z" transform="translate(43.425 11.588)" fill="none" stroke="#257ffc" stroke-linecap="round" stroke-miterlimit="10" stroke-width="2.839"/>
        <path id="Path_1095" data-name="Path 1095" d="M26505.852,1908.047v14.462a1.455,1.455,0,0,1-1.457,1.459h-11.555a1.46,1.46,0,0,1-1.461-1.459v-4.331" transform="translate(-26429.137 -1873.301)" fill="#d3e5fe" stroke="#257ffc" stroke-linecap="round" stroke-miterlimit="10" stroke-width="2.732"/>
        <path id="Path_1096" data-name="Path 1096" d="M26412.951,1901.378h-35.906a3.132,3.132,0,0,1-3.135-3.134v-17.727a8.086,8.086,0,0,1,8.088-8.086h60.535a8.083,8.083,0,0,1,8.086,8.086v17.727a3.133,3.133,0,0,1-3.133,3.133Z" transform="translate(-26373.898 -1856.553)" fill="#d3e5fe"/>
        <path id="Path_1097" data-name="Path 1097" d="M26450.609,1898.607v-16.813c.492-4.686-3.309-8.486-8-9.353h-2.062c5.715,4.342,5.715,9.5,5.715,9.5v7.251a3.51,3.51,0,0,1-3.512,3.513h-62.918c-.051,0-.1.013-.145.015v-.015a5.791,5.791,0,0,1-5.793-5.789v11.308a3.167,3.167,0,0,0,3.168,3.165h70.75a2.193,2.193,0,0,0,2.793-2.782Z" transform="translate(-26373.891 -1856.558)" fill="#b2d2fe"/>
        <path id="Path_1098" data-name="Path 1098" d="M26412.928,1901.476h-35.9a3.134,3.134,0,0,1-3.135-3.135v-17.726a8.084,8.084,0,0,1,8.086-8.086h60.537a8.081,8.081,0,0,1,8.084,8.086v17.72a3.13,3.13,0,0,1-3.133,3.135Z" transform="translate(-26373.889 -1856.599)" fill="none" stroke="#257ffc" stroke-linecap="round" stroke-miterlimit="10" stroke-width="2.732"/>
        <path id="Path_1099" data-name="Path 1099" d="M26418.555,1858.388h-32.885l5.463-11.77a8.782,8.782,0,0,1,7.865-4.151h37.59a8.792,8.792,0,0,1,7.865,4.151l5.463,11.77Z" transform="translate(-26379.428 -1842.458)" fill="none" stroke="#257ffc" stroke-linecap="round" stroke-miterlimit="10" stroke-width="2.732"/>
        <path id="Path_1100" data-name="Path 1100" d="M26397.723,1889.961a3.772,3.772,0,0,0-3.771-3.772h-9.439a2.421,2.421,0,0,0-2.422,2.42v8.189a2.422,2.422,0,0,0,2.422,2.42h4.816" transform="translate(-26377.744 -1863.023)" fill="none" stroke="#257ffc" stroke-linecap="round" stroke-miterlimit="10" stroke-width="2.732"/>
        <path id="Rectangle_755" data-name="Rectangle 755" d="M0,0H15.921V3.329A2.461,2.461,0,0,1,13.46,5.789H4.014A4.014,4.014,0,0,1,0,1.776Z" transform="translate(20.269 28.956) rotate(180)" fill="#fff" stroke="#257ffc" stroke-linecap="round" stroke-miterlimit="10" stroke-width="2.781"/>
        <path id="Path_1101" data-name="Path 1101" d="M26438.072,1903.234h-11.781a2.1,2.1,0,0,1-2.039-2.615l1.844-7.37a2.1,2.1,0,0,1,2.039-1.592h15.529a2.105,2.105,0,0,1,2.041,1.592l1.844,7.37a2.107,2.107,0,0,1-2.041,2.615Z" transform="translate(-26397.543 -1865.594)" fill="#fff" stroke="#257ffc" stroke-linecap="round" stroke-miterlimit="10" stroke-width="2.732"/>
        <path id="Path_1102" data-name="Path 1102" d="M26480.992,1889.961a3.777,3.777,0,0,1,3.779-3.772h9.438a2.419,2.419,0,0,1,2.422,2.42v8.189a2.423,2.423,0,0,1-2.422,2.42h-4.816" transform="translate(-26424.254 -1863.023)" fill="none" stroke="#257ffc" stroke-linecap="round" stroke-miterlimit="10" stroke-width="2.732"/>
        <path id="Rectangle_756" data-name="Rectangle 756" d="M4.014,0H13.46a2.461,2.461,0,0,1,2.461,2.461V5.789H0V4.014A4.014,4.014,0,0,1,4.014,0Z" transform="translate(56.452 23.167)" fill="#fff" stroke="#257ffc" stroke-linecap="round" stroke-miterlimit="10" stroke-width="2.781"/>
      </g>
      <path id="Rectangle_757" data-name="Rectangle 757" d="M0,0H89.736V81.052H0Z" transform="translate(0)" fill="none"/>
    </g>
  </g>
</svg>
