<svg id="Layer_2" data-name="Layer 2" xmlns="http://www.w3.org/2000/svg" width="144.656" height="144.656" viewBox="0 0 144.656 144.656">
  <g id="Layer_1" data-name="Layer 1" transform="translate(0)">
    <g id="Layer_1-2" data-name="Layer 1-2">
      <path id="Path_641" data-name="Path 641" d="M72.328,0A72.328,72.328,0,1,1,0,72.328,72.328,72.328,0,0,1,72.328,0Z" fill="#fff"/>
      <path id="Path_642" data-name="Path 642" d="M30,22.2H49.575c-.664,20.9,12.608,21.9,21.234,21.234,1,0-1.991,6.636-1.991,6.636H36.3" transform="translate(69.534 51.455)" fill="none" stroke="#58595b" stroke-miterlimit="2.61" stroke-width="1.3"/>
      <path id="Path_643" data-name="Path 643" d="M12.3,10.5H52.445V37.374H12.3Z" transform="translate(28.509 24.337)" fill="#00b4ff"/>
      <path id="Path_644" data-name="Path 644" d="M67.221,46.261s.332-11.612.332-13.271A17.219,17.219,0,0,0,54.614,23.7c-22.561,0-36.5.664-39.814,23.225Z" transform="translate(34.304 54.932)" fill="#fff"/>
      <path id="Path_645" data-name="Path 645" d="M28.8,35.281H16.362c-.332,9.953,4.313,17.253,16.257,20.57a75.444,75.444,0,0,0,8.626,1c.664,0,7.3-2.322,8.295-2.654s5.308-2.986,5.308-2.986,3.65-3.981,3.981-4.645,1.327-4.645,1.327-4.645l.664-6.3V33.291L47.217,31.3l1,5.308-2.986,4.977L36.6,44.9s-5.64-2.654-5.64-3.981a13.835,13.835,0,0,0-1-3.65l-1-1.991Z" transform="translate(37.885 72.547)" fill="#00b4ff"/>
      <path id="Path_646" data-name="Path 646" d="M47.25,42.76H83.414A6.636,6.636,0,0,1,90.049,49.4h0a6.636,6.636,0,0,1-6.636,6.636H47.25A6.636,6.636,0,0,1,40.614,49.4h0A6.636,6.636,0,0,1,47.25,42.76ZM24.357,9.25H71.8V42.428H24.191V9.25ZM13.74,26.5H30v-.664H13.574V26.5Zm4.977-9.622H31.656v-.664H18.385v.664Zm.664,18.58H31.324v-.5H19.214v.664ZM4.45,26.5h1v-.664h-1ZM75.285,82.573a10.351,10.351,0,0,1,.664,3.318,9.622,9.622,0,1,1-19.243,0,12.541,12.541,0,0,1,.664-3.318Z" transform="translate(10.314 21.44)" fill="none" stroke="#58595b" stroke-miterlimit="2.61" stroke-width="1.3"/>
      <path id="Path_647" data-name="Path 647" d="M42.6,22.8H58.19A15.992,15.992,0,0,1,69.8,27.447,15.3,15.3,0,0,1,74.779,38.4V52.663H13.4V50.672A26.775,26.775,0,0,1,22.026,31.1,28.732,28.732,0,0,1,42.6,22.8ZM58.19,26.784H42.6a25.315,25.315,0,0,0-17.584,6.967,24.618,24.618,0,0,0-7.3,14.6H70.134V38.064a9.953,9.953,0,0,0-3.65-7.963A11.745,11.745,0,0,0,58.19,26.784Z" transform="translate(31.059 52.843)" fill="#58595b" stroke="#58595b" stroke-miterlimit="2.61" stroke-width="0.3"/>
      <path id="Path_648" data-name="Path 648" d="M68.195,32.371c.332.664,0,1.659,0,2.322A27.869,27.869,0,0,1,60.564,53.6a26.343,26.343,0,0,1-18.911,7.631A27.87,27.87,0,0,1,22.741,53.6,26.343,26.343,0,0,1,15.11,34.693a16.025,16.025,0,0,1,.332-3.981c0-.664.332,1,.332.332h4.313c-.332.664-.332-.664-.332,0a13.5,13.5,0,0,0-.332,3.65,23.225,23.225,0,0,0,6.636,15.925,22.462,22.462,0,0,0,15.925,6.636,23.225,23.225,0,0,0,15.925-6.636,22.461,22.461,0,0,0,6.636-15.925V32.371C63.882,31.707,67.863,31.707,68.195,32.371Z" transform="translate(34.989 70.813)" fill="#58595b" stroke="#58595b" stroke-miterlimit="2.61" stroke-width="0.3"/>
    </g>
  </g>
</svg>
