<svg xmlns="http://www.w3.org/2000/svg" xmlns:xlink="http://www.w3.org/1999/xlink" width="98" height="89" viewBox="0 0 98 89">
  <defs>
    <clipPath id="clip-path">
      <rect id="Rectangle_181" data-name="Rectangle 181" width="98" height="89" transform="translate(1304.9 547.297)" fill="#fff"/>
    </clipPath>
  </defs>
  <g id="Mask_Group_14" data-name="Mask Group 14" transform="translate(-1304.9 -547.297)" clip-path="url(#clip-path)">
    <g id="Group_5435" data-name="Group 5435" transform="translate(1304.304 547)">
      <g id="Group_5434" data-name="Group 5434" transform="translate(3.35 14.316)">
        <g id="Group_5432" data-name="Group 5432" transform="translate(20.55)">
          <path id="Path_1065" data-name="Path 1065" d="M25251.994,1847.4a26.968,26.968,0,1,1,53.936,0c0,10.913-14.477,30.16-22.217,39.677a6.112,6.112,0,0,1-9.5,0C25266.475,1877.557,25251.994,1858.31,25251.994,1847.4Z" transform="translate(-25251.994 -1820.429)" fill="#fff" stroke="#257ffc" stroke-linecap="round" stroke-linejoin="round" stroke-width="2.732"/>
        </g>
        <g id="Group_5433" data-name="Group 5433" transform="translate(2.867 30.784)">
          <path id="Path_1066" data-name="Path 1066" d="M25294.629,1884.131h-62.912c-5.008,0-9.92-1.713-9.92-3.68s5.158-4.216,5.158-4.216l2.594-1.92a6.713,6.713,0,0,1,3.992-1.317h68.447" transform="translate(-25221.797 -1872.999)" fill="#a47c52" stroke="#fff" stroke-linecap="round" stroke-linejoin="round" stroke-width="10.929"/>
          <path id="Path_1067" data-name="Path 1067" d="M25300.533,1889.032l4.8,4.472,8.209,4.212-6.049,2.578h14.535l7.813-6.79h-6.523l-15.824,6.82-30.8-9.633,1.449-1.974h17.033" transform="translate(-25244.547 -1879.513)" fill="#fff" stroke="#fff" stroke-linecap="round" stroke-linejoin="round" stroke-width="8.196"/>
        </g>
        <path id="Path_1068" data-name="Path 1068" d="M25309.4,1844.2h-7.932l-9.166,16.868h-63.646a6.72,6.72,0,0,0-4,1.316l-2.594,1.92s-5.158,2.248-5.158,4.216,4.9,3.68,9.92,3.68h25.248l29.719,9.294.068-.029h14.465l7.813-6.79h-6.523l-9.781,4.216-8.205-4.216-2.658-2.475h7.971l21.68-5.062a2.792,2.792,0,0,0,2.158-2.72v-3.349h-3.791Z" transform="translate(-25216.9 -1830.279)" fill="#d3e5fe"/>
        <path id="Path_1069" data-name="Path 1069" d="M25304.873,1851.453l-7.555,16.479h-8.025l-2.447,1.44a6.034,6.034,0,0,1-3.043.824h-50.873a6.028,6.028,0,0,1-4.049-1.558l-.77-.7h-6.49c-1.24.593-4.719,2.4-4.719,4.014,0,1.966,4.9,3.68,9.918,3.68h25.457l-.031.038,30.8,9.635.068-.03h13.043l7.811-6.79-6.4.01-10.176,4.16-7.68-4.16-3.061-2.853h8.268l6.623-1.546h8.686l4.656-1.48v-1.634l1.715-.4a2.792,2.792,0,0,0,2.16-2.72v-3.349h-3.793l3.418-13.05Z" transform="translate(-25216.902 -1833.286)" fill="#b2d2fe"/>
        <path id="Path_1070" data-name="Path 1070" d="M25309.4,1844.2h-7.932l-9.166,16.868h-63.646a6.72,6.72,0,0,0-4,1.316l-2.594,1.92s-5.158,2.248-5.158,4.216,4.9,3.68,9.92,3.68h25.248l29.719,9.294.068-.029h14.465l7.813-6.79h-6.523l-9.781,4.216-8.205-4.216-2.658-2.475h7.971l21.68-5.062a2.792,2.792,0,0,0,2.158-2.72v-3.349h-3.791Z" transform="translate(-25216.9 -1830.279)" fill="none" stroke="#257ffc" stroke-linecap="round" stroke-linejoin="round" stroke-width="2.732"/>
        <path id="Path_1071" data-name="Path 1071" d="M25277.24,1890.688l1.449-1.974h17.033" transform="translate(-25241.906 -1848.728)" fill="none" stroke="#257ffc" stroke-linecap="round" stroke-linejoin="round" stroke-width="2.732"/>
        <line id="Line_274" data-name="Line 274" x1="5.475" y2="0.045" transform="translate(4.843 34.297)" fill="#e9f5fd" stroke="#257ffc" stroke-linecap="round" stroke-linejoin="round" stroke-width="2.732"/>
        <path id="Path_1072" data-name="Path 1072" d="M25352.3,1885.189h-9.758v-5.92h9.758l4.656,1.48v2.961Z" transform="translate(-25268.967 -1844.814)" fill="#d3e5fe" stroke="#257ffc" stroke-linecap="round" stroke-linejoin="round" stroke-width="2.732"/>
        <line id="Line_275" data-name="Line 275" y2="5.923" transform="translate(77.825 34.454)" fill="#e9f5fd" stroke="#257ffc" stroke-linecap="round" stroke-linejoin="round" stroke-width="2.732"/>
        <path id="Path_1073" data-name="Path 1073" d="M25358.223,1862.133l5.156-10.9h3.5" transform="translate(-25275.467 -1833.196)" fill="none" stroke="#257ffc" stroke-linecap="round" stroke-linejoin="round" stroke-width="2.732"/>
        <line id="Line_276" data-name="Line 276" y1="2.587" x2="6.054" transform="translate(64.88 48.631)" fill="#e9f5fd" stroke="#257ffc" stroke-linecap="round" stroke-linejoin="round" stroke-width="2.732"/>
      </g>
      <rect id="Rectangle_751" data-name="Rectangle 751" width="99.194" height="89.594" transform="translate(0)" fill="none"/>
    </g>
  </g>
</svg>
