<svg xmlns="http://www.w3.org/2000/svg" width="53" height="53" viewBox="0 0 53 53">
  <path id="twitter" d="M26.5,0A26.5,26.5,0,1,0,53,26.5,26.5,26.5,0,0,0,26.5,0ZM38.6,20.662q.018.391.017.786c0,8.037-6.118,17.306-17.306,17.306h0a17.217,17.217,0,0,1-9.323-2.732,12.371,12.371,0,0,0,1.451.084,12.2,12.2,0,0,0,7.555-2.6,6.089,6.089,0,0,1-5.682-4.225,6.062,6.062,0,0,0,2.747-.1,6.084,6.084,0,0,1-4.88-5.962c0-.027,0-.052,0-.078a6.041,6.041,0,0,0,2.755.761,6.088,6.088,0,0,1-1.883-8.12,17.269,17.269,0,0,0,12.538,6.355,6.086,6.086,0,0,1,10.365-5.547,12.2,12.2,0,0,0,3.862-1.476,6.106,6.106,0,0,1-2.675,3.364,12.131,12.131,0,0,0,3.493-.958,12.361,12.361,0,0,1-3.034,3.15Zm0,0" fill="#fff"/>
</svg>
