<svg id="up-arrow" xmlns="http://www.w3.org/2000/svg" width="46.477" height="46.477" viewBox="0 0 46.477 46.477">
  <g id="Group_146" data-name="Group 146">
    <g id="Group_145" data-name="Group 145">
      <path id="Path_184" data-name="Path 184" d="M23.238,0A23.238,23.238,0,1,0,46.477,23.238,23.264,23.264,0,0,0,23.238,0Zm0,42.877A19.638,19.638,0,1,1,42.877,23.238,19.661,19.661,0,0,1,23.238,42.877Z" fill="#f7d800"/>
    </g>
  </g>
  <g id="Group_148" data-name="Group 148" transform="translate(12.545 16.198)">
    <g id="Group_147" data-name="Group 147">
      <path id="Path_185" data-name="Path 185" d="M159.169,187.97l-9-9a1.8,1.8,0,0,0-2.538,0l-9,9a1.8,1.8,0,0,0,2.538,2.538l7.722-7.722,7.74,7.722a1.795,1.795,0,0,0,2.538-2.538Z" transform="translate(-138.197 -178.446)" fill="#f7d800"/>
    </g>
  </g>
</svg>
