<svg xmlns="http://www.w3.org/2000/svg" width="21.002" height="31.119" viewBox="0 0 21.002 31.119">
  <g id="person" transform="translate(-78.033 0)">
    <path id="Path_782" data-name="Path 782" d="M106,35.024v2.545a.518.518,0,0,1-.519.519H86.551a.518.518,0,0,1-.519-.519V35.024a4.834,4.834,0,0,1,4.835-4.834,2.684,2.684,0,0,0,2.253-1.223,3.047,3.047,0,0,0,.431-1.9l.01-.024A6.418,6.418,0,0,1,89.6,21.113v-.2a1.6,1.6,0,0,1-1.621-1.591V16.625a8.972,8.972,0,0,1,2.411-6.549c2.778-2.678,7.181-2.459,10.37-1.026a.13.13,0,0,1,0,.239l-.832.342a.13.13,0,0,0,.036.249l.4.043a6.543,6.543,0,0,1,4.843,3,.139.139,0,0,1-.017.16,3.922,3.922,0,0,0-1.071,2.694v3.537a1.591,1.591,0,0,1-1.591,1.591h-.095v.2a6.418,6.418,0,0,1-3.964,5.931l.01.024a3.046,3.046,0,0,0,.431,1.9,2.684,2.684,0,0,0,2.253,1.223A4.834,4.834,0,0,1,106,35.024Z" transform="translate(-7.48 -7.488)" fill="#d1e7ff"/>
    <path id="Path_783" data-name="Path 783" d="M106,337.429v2.545a.519.519,0,0,1-.519.519H86.551a.519.519,0,0,1-.519-.519v-2.545a4.835,4.835,0,0,1,4.835-4.834,2.684,2.684,0,0,0,2.254-1.223,4.449,4.449,0,0,0,5.789,0,2.684,2.684,0,0,0,2.254,1.223A4.835,4.835,0,0,1,106,337.429Z" transform="translate(-7.48 -309.893)" fill="#b9dcff"/>
    <path id="Path_784" data-name="Path 784" d="M133.221,12.929a.138.138,0,0,1-.017.16,3.924,3.924,0,0,0-1.071,2.694V19.32a1.594,1.594,0,0,1-1.685,1.591v-4a3.111,3.111,0,0,0-3.111-3.111h-6.612a3.111,3.111,0,0,0-3.111,3.111v4a1.6,1.6,0,0,1-1.621-1.591V16.626a8.973,8.973,0,0,1,2.411-6.549c2.778-2.678,7.181-2.459,10.37-1.026a.13.13,0,0,1,0,.238l-.832.342a.13.13,0,0,0,.036.249l.4.043a6.54,6.54,0,0,1,4.843,3Z" transform="translate(-35.497 -7.488)" fill="#b9dcff"/>
    <path id="Path_785" data-name="Path 785" d="M153.867,104.611a6.419,6.419,0,1,1-12.835-.2v-4a3.111,3.111,0,0,1,3.111-3.111h6.612a3.111,3.111,0,0,1,3.111,3.111Z" transform="translate(-58.915 -90.986)" fill="#d1e7ff"/>
    <path id="Path_786" data-name="Path 786" d="M146,123.393a1.025,1.025,0,0,1-.932,1.815,6.418,6.418,0,0,1-4.032-5.959v-4.207a3.1,3.1,0,0,1,.546-1.761.766.766,0,0,1,1.4.465v4.207A6.371,6.371,0,0,0,146,123.393Z" transform="translate(-58.915 -105.624)" fill="#e8f3ff"/>
    <path id="Path_787" data-name="Path 787" d="M205.975,302.781a6.435,6.435,0,0,1-5.073,0,4.017,4.017,0,0,0,.073-1.064l.01-.024a6.431,6.431,0,0,0,4.907,0l.01.024A4.016,4.016,0,0,0,205.975,302.781Z" transform="translate(-114.904 -282.137)" fill="#b9dcff"/>
    <path id="Path_788" data-name="Path 788" d="M93.478,334.161a2.637,2.637,0,0,1-.772.119,4.847,4.847,0,0,0-4.859,4.817v.487a.908.908,0,0,1-.908.908H86.55a.519.519,0,0,1-.519-.519v-2.545a4.835,4.835,0,0,1,4.835-4.834,2.684,2.684,0,0,0,2.254-1.223,4.489,4.489,0,0,0,.617.442A1.3,1.3,0,0,1,93.478,334.161Z" transform="translate(-7.48 -309.893)" fill="#d1e7ff"/>
    <path id="Path_789" data-name="Path 789" d="M266.258,334.161a2.637,2.637,0,0,0,.772.119,4.847,4.847,0,0,1,4.859,4.817v.487a.908.908,0,0,0,.907.908h.389a.519.519,0,0,0,.519-.519v-2.545a4.835,4.835,0,0,0-4.835-4.834,2.684,2.684,0,0,1-2.254-1.223,4.49,4.49,0,0,1-.617.442A1.3,1.3,0,0,0,266.258,334.161Z" transform="translate(-175.188 -309.893)" fill="#a2d0ff"/>
    <path id="Path_790" data-name="Path 790" d="M128.771,9.289c-.762.314-.871.383-1.135.342-4.257-.66-7.992,1.1-9.261,5.237h0a3.1,3.1,0,0,0-.761,2.038v2.432a.81.81,0,1,1-1.621-.019V16.625a8.973,8.973,0,0,1,2.411-6.549c2.778-2.678,7.181-2.459,10.37-1.026A.13.13,0,0,1,128.771,9.289Z" transform="translate(-35.498 -7.488)" fill="#d1e7ff"/>
    <path id="Path_791" data-name="Path 791" d="M99.035,27.537V30.6A.519.519,0,1,1,98,30.6V27.537a4.313,4.313,0,0,0-4.315-4.315,3.184,3.184,0,0,1-2.739-1.538.519.519,0,0,1,.886-.54,2.154,2.154,0,0,0,1.854,1.04A5.349,5.349,0,0,1,99.035,27.537Zm-9.05-5.2a.519.519,0,0,1-.4.617,4.963,4.963,0,0,1-3.858-.755,3.145,3.145,0,0,1-2.346,1.021,4.313,4.313,0,0,0-4.315,4.315V30.6a.519.519,0,1,1-1.037,0V27.537a5.349,5.349,0,0,1,5.352-5.352,2.162,2.162,0,0,0,2.167-2.161v-.137A6.947,6.947,0,0,1,81.6,13.881a2.116,2.116,0,0,1-1.626-2.05V9.143a9.5,9.5,0,0,1,2.57-6.928c2.967-2.86,7.726-2.679,11.225-.994a.52.52,0,0,1,.11.864,7,7,0,0,1,4.283,3.081.573.573,0,0,1,.119.408.524.524,0,0,1-.149.329,3.386,3.386,0,0,0-.98,2.392v3.537a.519.519,0,0,1-1.037,0V8.294a4.414,4.414,0,0,1,1.007-2.819,5.99,5.99,0,0,0-4.3-2.524l-.911-.1a.519.519,0,0,1-.142-1l.415-.171c-5.4-1.882-11.172.209-11.172,7.45v2.694a1.071,1.071,0,0,0,.583.949V9.418a3.634,3.634,0,0,1,3.63-3.63H91.84a3.634,3.634,0,0,1,3.63,3.63v4.246a6.946,6.946,0,0,1-8.892,6.615,3.171,3.171,0,0,1-.271,1.059,3.927,3.927,0,0,0,3.062.6A.519.519,0,0,1,89.986,22.339Zm-1.452-2.815a5.905,5.905,0,0,0,5.9-5.9V9.418A2.6,2.6,0,0,0,91.84,6.826H85.228a2.6,2.6,0,0,0-2.593,2.593v4.206A5.905,5.905,0,0,0,88.534,19.524Zm5.251,8.937H92.229a.519.519,0,0,0,0,1.037h1.556a.519.519,0,1,0,0-1.037Z" transform="translate(0 0)" fill="#2e58ff"/>
  </g>
</svg>
